<svg width="214" height="138" viewBox="0 0 214 138" fill="none" xmlns="http://www.w3.org/2000/svg">
<path d="M0.748047 11.6959C0.748047 5.51259 5.96124 0.5 12.392 0.5H201.607C208.038 0.5 213.251 5.51259 213.251 11.6959V126.804C213.251 132.987 208.038 138 201.607 138H12.392C5.96125 138 0.748047 132.987 0.748047 126.804V11.6959Z" fill="#C7D4DA"/>
<path d="M201.607 135.201V138H12.392L12.392 135.201H201.607ZM210.34 126.804V11.6959C210.34 7.05843 206.43 3.29899 201.607 3.29898H12.392C7.56894 3.29898 3.65905 7.05842 3.65905 11.6959V126.804C3.65905 131.442 7.56894 135.201 12.392 135.201L12.392 138L12.0914 137.996C5.89946 137.845 0.908877 133.047 0.751956 127.093L0.748047 126.804V11.6959C0.748048 5.60924 5.79956 0.657075 12.0914 0.503758L12.392 0.5H201.607L201.908 0.503758C208.199 0.657079 213.251 5.60923 213.251 11.6959V126.804L213.247 127.093C213.09 133.047 208.1 137.845 201.908 137.996L201.607 138V135.201C206.43 135.201 210.34 131.442 210.34 126.804Z" fill="#002F47"/>
<path d="M128.426 44.7967C130.275 44.7969 131.773 46.2952 131.774 48.144V50.8449L88.2737 94.3447H85.5728C83.724 94.3447 82.2257 92.8462 82.2255 90.9974V90.5979L128.028 44.7967H128.426ZM131.774 73.7014L111.13 94.3447H101.335L131.774 63.9064V73.7014ZM131.774 90.9974C131.773 92.8461 130.275 94.3445 128.426 94.3447H124.192L131.774 86.7629V90.9974ZM82.2255 77.5364V67.7414L105.17 44.7967H114.966L82.2255 77.5364ZM82.2255 54.6799V48.144C82.2256 46.2951 83.7239 44.7967 85.5728 44.7967H92.1098L82.2255 54.6799Z" fill="#567186"/>
<path d="M197.56 50.4818L197.635 50.4835C198.404 50.5226 199.015 51.1586 199.015 51.9373C199.015 52.716 198.404 53.352 197.635 53.391L197.56 53.3928H155.714C154.91 53.3928 154.259 52.7411 154.259 51.9373C154.259 51.1334 154.91 50.4818 155.714 50.4818H197.56Z" fill="#002F47"/>
<path d="M188.463 62.1258L188.538 62.1276C189.307 62.1666 189.918 62.8026 189.918 63.5813C189.918 64.36 189.307 64.996 188.538 65.0351L188.463 65.0368H155.714C154.91 65.0368 154.259 64.3852 154.259 63.5813C154.259 62.7775 154.91 62.1258 155.714 62.1258H188.463Z" fill="#002F47"/>
<path d="M177.91 73.7699L177.985 73.7717C178.754 73.8107 179.366 74.4467 179.366 75.2254C179.366 76.0041 178.754 76.6401 177.985 76.6791L177.91 76.6809H155.714C154.91 76.6809 154.259 76.0293 154.259 75.2254C154.259 74.4216 154.91 73.7699 155.714 73.7699H177.91Z" fill="#002F47"/>
<path d="M17.0787 50.4818L17.0038 50.4835C16.2348 50.5226 15.6233 51.1586 15.6233 51.9373C15.6233 52.716 16.2348 53.352 17.0038 53.391L17.0787 53.3928H58.9244C59.7282 53.3928 60.3799 52.7411 60.3799 51.9373C60.3799 51.1334 59.7282 50.4818 58.9244 50.4818H17.0787Z" fill="#002F47"/>
<path d="M26.1756 62.1258L26.1006 62.1276C25.3316 62.1666 24.7201 62.8026 24.7201 63.5813C24.7201 64.36 25.3316 64.996 26.1006 65.0351L26.1756 65.0368H58.9244C59.7282 65.0368 60.3799 64.3852 60.3799 63.5813C60.3799 62.7775 59.7282 62.1258 58.9244 62.1258H26.1756Z" fill="#002F47"/>
<path d="M36.728 73.7699L36.653 73.7717C35.884 73.8107 35.2725 74.4467 35.2725 75.2254C35.2725 76.0041 35.884 76.6401 36.653 76.6791L36.728 76.6809H58.9244C59.7282 76.6809 60.3799 76.0293 60.3799 75.2254C60.3799 74.4216 59.7282 73.7699 58.9244 73.7699H36.728Z" fill="#002F47"/>
<path d="M15.6233 111.002C15.6233 108.067 18.0018 105.689 20.9358 105.689H193.063C195.997 105.689 198.376 108.067 198.376 111.002V119.502C198.376 122.436 195.997 124.814 193.063 124.814H20.9358C18.0018 124.814 15.6233 122.436 15.6233 119.502V111.002Z" fill="#002F47"/>
<path d="M15.6233 19.6253C15.6233 16.6912 18.0018 14.3127 20.9358 14.3127H193.063C195.997 14.3127 198.376 16.6912 198.376 19.6253V20.6453C198.376 23.5793 195.997 25.9578 193.063 25.9578H20.9358C18.0018 25.9578 15.6233 23.5793 15.6233 20.6453V19.6253Z" fill="#002F47"/>
<path d="M128.25 93.2148V96.1263H85.7492V93.2148H128.25ZM130.651 90.8137V48.3131C130.651 47.07 129.706 46.0477 128.496 45.9246L128.25 45.9121H85.7492C84.5061 45.9121 83.4838 46.8566 83.3606 48.0672L83.3482 48.3131V90.8137C83.3482 92.1399 84.423 93.2148 85.7492 93.2148V96.1263L85.4763 96.119C82.7595 95.9816 80.5814 93.8035 80.4439 91.0866L80.4366 90.8137V48.3131C80.4366 45.4706 82.6691 43.1499 85.4763 43.0078L85.7492 43.0006H128.25L128.523 43.0078C131.33 43.1499 133.562 45.4706 133.562 48.3131V90.8137L133.555 91.0866C133.418 93.8035 131.24 95.9816 128.523 96.119L128.25 96.1263V93.2148C129.576 93.2148 130.651 92.1399 130.651 90.8137Z" fill="#002F47"/>
</svg>
